<?xml version="1.0" encoding="UTF-8"?><svg xmlns="http://www.w3.org/2000/svg" viewBox="0 0 1020 540"><defs><style>.cls-1{fill:#ff7900;}.cls-1,.cls-2{stroke-width:0px;}.cls-2{fill:#fff;}</style></defs><g id="Carré_Logos"><rect class="cls-1" x="61.69" y="60" width="420" height="420"/><path class="cls-2" d="M226.46,439.33c-5.95,3.92-12.39,5.81-19.34,5.81-10.91,0-17.35-7.26-17.35-16.99,0-13.08,12.02-20.02,36.81-22.81v-3.26c0-4.25-3.22-6.71-9.17-6.71-5.95,0-10.78,2.35-14.25,6.71l-10.41-5.93c5.46-7.61,13.76-11.41,24.91-11.41,15.24,0,23.79,6.6,23.79,17.33,0,0-.02,42.27.01,42.38h-13.64s-1.37-5.14-1.37-5.14ZM204.89,427.04c0,3.92,2.48,7.59,6.94,7.59,4.83,0,9.54-2.01,14.25-6.15v-13.85c-14.37,1.79-21.19,5.48-21.19,12.41Z"/><path class="cls-2" d="M253.62,387.55l12.73-1.76,1.4,6.94c7.19-5.26,12.89-8.06,20.08-8.06,12.02,0,18.22,6.38,18.22,19.01v40.71s-15.37,0-15.37,0v-38.02c0-7.16-1.85-10.4-7.43-10.4-4.59,0-9.17,2.12-14.38,6.49v41.93s-15.25,0-15.25,0v-56.84Z"/><path class="cls-2" d="M407.94,445.5c-17.22,0-27.51-11.07-27.51-30.3,0-19.46,10.41-30.53,27.27-30.53,16.86,0,26.9,10.74,26.9,29.75,0,1-.12,2.01-.12,3.02h-38.91c.12,11.07,4.71,16.66,13.76,16.66,5.82,0,9.66-2.35,13.26-7.49l11.28,6.26c-4.96,8.28-13.88,12.64-25.9,12.64ZM419.46,407.49c0-7.83-4.46-12.42-11.78-12.42-6.94,0-11.28,4.48-11.9,12.42h23.67Z"/><path class="cls-2" d="M113.38,446.14c-15.21,0-28.92-9.7-28.92-30.85,0-21.15,13.71-30.85,28.92-30.85,15.21,0,28.92,9.69,28.92,30.85,0,21.15-13.71,30.85-28.92,30.85ZM113.38,397.45c-11.48,0-13.61,10.36-13.61,17.85,0,7.49,2.12,17.85,13.61,17.85,11.49,0,13.61-10.35,13.61-17.85,0-7.49-2.13-17.85-13.61-17.85Z"/><path class="cls-2" d="M152.85,385.98h14.62s0,6.88,0,6.88c2.78-3.7,9.67-8.08,16.11-8.08.62,0,1.36,0,1.98.11v14.43c-.25,0-.5,0-.74,0-6.69,0-14.01,1.03-16.36,6.23v38.88s-15.62,0-15.62,0v-58.45Z"/><path class="cls-2" d="M343.71,431.88c11.68-.09,12.66-11.96,12.66-19.71,0-9.13-4.47-16.57-12.76-16.57-5.53,0-11.69,4.04-11.69,17.2,0,7.22.51,19.17,11.8,19.08ZM371.14,385.77v55.35c0,9.77-.74,25.84-28.6,26.02-11.49.07-22.14-4.52-24.27-14.56l15.18-2.44c.64,2.87,2.39,5.74,11,5.74,7.97,0,11.8-3.82,11.8-12.96v-6.8s-.21-.21-.21-.21c-2.44,4.36-6.17,8.5-15.1,8.5-13.61,0-24.35-9.45-24.35-29.21,0-19.54,11.06-30.48,23.49-30.5,11.65-.02,15.99,5.3,16.98,8.09l-.18-.03,1.26-6.99h12.99Z"/><path class="cls-2" d="M440.62,366.39h-6.05v16.74s-3.19,0-3.19,0v-16.74h-6.05s0-2.58,0-2.58h15.28s0,2.58,0,2.58ZM465.8,383.13h-3.19s0-16.13,0-16.13h-.1s-6.33,16.13-6.33,16.13h-2.01s-6.33-16.13-6.33-16.13h-.1v16.13s-3.19,0-3.19,0v-19.31s4.92,0,4.92,0l5.76,14.67,5.67-14.67h4.88s0,19.31,0,19.31Z"/></g><g id="texte_calage"><path class="cls-2" d="M559.65,339.97v17.11h-20.76v-17.11h20.76ZM559.65,368.78v75.59h-20.76v-75.59h20.76Z"/><path class="cls-2" d="M602.73,366.73c10.14,0,18.06,2.05,23.76,6.14,5.7,4.09,8.89,10.09,9.58,17.98h-19.74c-.29-3.61-1.61-6.21-3.95-7.82-2.34-1.61-5.75-2.41-10.24-2.41-3.9,0-6.8.58-8.7,1.75-1.9,1.17-2.85,2.92-2.85,5.26,0,1.75.63,3.22,1.9,4.39,1.27,1.17,3.19,2.19,5.78,3.07,2.58.88,5.43,1.61,8.55,2.19,9.45,1.85,16.13,3.75,20.03,5.7,3.9,1.95,6.75,4.29,8.55,7.02,1.8,2.73,2.7,6.09,2.7,10.09,0,8.48-3.1,14.99-9.28,19.52-6.19,4.53-14.6,6.8-25.22,6.8s-19.76-2.39-25.95-7.16c-6.19-4.77-9.38-11.26-9.58-19.45h19.74c0,3.9,1.51,7,4.53,9.28,3.02,2.29,6.82,3.44,11.41,3.44,3.9,0,7.14-.85,9.72-2.56,2.58-1.7,3.87-4.07,3.87-7.09,0-1.95-.8-3.56-2.41-4.83-1.61-1.27-3.87-2.39-6.8-3.36-2.92-.97-7.46-2.09-13.6-3.36-4.88-.97-9.21-2.29-13.01-3.95-3.8-1.66-6.7-3.82-8.7-6.51-2-2.68-3-5.97-3-9.87,0-4.97,1.19-9.31,3.58-13.01,2.39-3.7,6.04-6.51,10.97-8.41,4.92-1.9,11.04-2.85,18.35-2.85Z"/><path class="cls-2" d="M694.11,339.97v39.33h.44c2.34-3.9,5.51-6.97,9.5-9.21,4-2.24,8.24-3.36,12.72-3.36,9.65,0,16.64,2.44,20.98,7.31,4.34,4.88,6.51,12.57,6.51,23.1v47.23h-20.76v-42.99c0-6.14-1-10.72-3-13.74-2-3.02-5.43-4.53-10.31-4.53-5.56,0-9.63,1.68-12.21,5.04-2.58,3.36-3.87,8.9-3.87,16.6v39.63h-20.76v-104.4h20.76Z"/><path class="cls-2" d="M790.92,366.73c7.11,0,13.45,1.66,19.01,4.97,5.56,3.31,9.92,8.11,13.09,14.4,3.17,6.29,4.75,13.53,4.75,21.71,0,.78-.05,2.05-.15,3.8h-54.54c.19,6.05,1.78,10.75,4.75,14.11,2.97,3.36,7.53,5.04,13.67,5.04,3.8,0,7.29-.95,10.45-2.85,3.17-1.9,5.19-4.22,6.07-6.95h18.28c-5.36,16.96-17.16,25.44-35.38,25.44-6.92-.1-13.33-1.61-19.23-4.53-5.9-2.92-10.6-7.48-14.11-13.67-3.51-6.19-5.26-13.38-5.26-21.57,0-7.7,1.78-14.72,5.34-21.06,3.56-6.34,8.28-11.06,14.18-14.18,5.9-3.12,12.26-4.68,19.08-4.68ZM806.86,398.46c-.98-5.65-2.78-9.75-5.41-12.28-2.63-2.53-6.39-3.8-11.26-3.8s-9.07,1.44-11.99,4.31c-2.92,2.88-4.63,6.8-5.12,11.77h33.78Z"/><path class="cls-2" d="M880.17,366.73c1.75,0,3.26.24,4.53.73v19.3c-2.24-.49-4.73-.73-7.46-.73-13.65,0-20.47,8.09-20.47,24.27v34.07h-20.76v-75.59h19.74v14.04h.29c2.05-4.87,5.29-8.77,9.72-11.7,4.43-2.92,9.23-4.39,14.4-4.39Z"/><path class="cls-2" d="M924.01,366.73c7.11,0,13.45,1.66,19.01,4.97,5.56,3.31,9.92,8.11,13.09,14.4,3.17,6.29,4.75,13.53,4.75,21.71,0,.78-.05,2.05-.15,3.8h-54.54c.19,6.05,1.78,10.75,4.75,14.11,2.97,3.36,7.53,5.04,13.67,5.04,3.8,0,7.29-.95,10.45-2.85,3.17-1.9,5.19-4.22,6.07-6.95h18.28c-5.36,16.96-17.16,25.44-35.38,25.44-6.92-.1-13.33-1.61-19.23-4.53-5.9-2.92-10.6-7.48-14.11-13.67-3.51-6.19-5.26-13.38-5.26-21.57,0-7.7,1.78-14.72,5.34-21.06,3.56-6.34,8.28-11.06,14.18-14.18,5.9-3.12,12.26-4.68,19.08-4.68ZM939.95,398.46c-.98-5.65-2.78-9.75-5.41-12.28-2.63-2.53-6.39-3.8-11.26-3.8s-9.07,1.44-11.99,4.31c-2.92,2.88-4.63,6.8-5.12,11.77h33.78Z"/></g></svg>